<?xml version="1.0" encoding="UTF-8" standalone="no"?>
<!DOCTYPE svg PUBLIC "-//W3C//DTD SVG 1.1//EN" "http://www.w3.org/Graphics/SVG/1.1/DTD/svg11.dtd">
<svg xmlns="http://www.w3.org/2000/svg" version="1.1" viewBox="0 0 724 650" width="724.0pt" height="650.0pt">
<path d="M 0.00 0.00 L 724.00 0.00 L 724.00 650.00 L 0.00 650.00 L 0.00 0.00 Z" fill="#ffffff" />
<path d="M 365.00 36.08 C 371.20 36.18 375.58 39.28 380.74 42.23 C 409.26 58.73 437.79 75.23 466.34 91.68 C 476.30 96.82 483.79 108.89 484.35 119.99 C 484.44 153.22 484.31 186.76 484.35 220.00 C 484.31 225.55 484.80 230.63 483.08 235.99 C 480.76 243.41 476.17 250.54 469.73 255.02 C 471.64 252.63 473.10 250.18 472.75 246.98 C 472.55 242.37 468.77 239.91 465.23 237.75 C 437.98 222.06 410.75 206.26 383.51 190.56 C 377.77 187.26 372.73 183.74 366.01 182.69 C 361.77 182.12 357.32 182.16 353.07 182.66 C 346.20 183.75 340.72 187.58 334.83 190.94 C 307.59 206.63 280.37 222.38 253.11 238.05 C 249.66 240.09 246.20 242.67 245.60 246.94 C 245.06 250.87 247.52 253.45 250.02 256.06 C 242.72 251.59 237.56 244.08 235.05 236.00 C 233.15 229.97 233.75 224.23 233.69 218.00 C 233.68 186.34 233.78 154.66 233.69 123.00 C 233.45 110.51 240.69 97.70 251.69 91.69 C 282.13 74.20 312.61 56.55 343.03 39.05 C 349.91 35.01 357.30 36.01 365.00 36.08 Z" fill="#c6d216" />
<path d="M 353.07 182.66 C 357.32 182.16 361.77 182.12 366.01 182.69 C 372.73 183.74 377.77 187.26 383.51 190.56 C 410.75 206.26 437.98 222.06 465.23 237.75 C 468.77 239.91 472.55 242.37 472.75 246.98 C 473.10 250.18 471.64 252.63 469.73 255.02 C 467.25 256.80 464.46 258.27 461.82 259.81 C 433.14 276.36 404.40 292.92 375.73 309.49 C 368.44 313.67 360.20 314.28 352.03 313.06 C 344.11 311.53 338.68 307.12 331.77 303.37 C 304.59 287.60 277.13 271.89 250.02 256.06 C 247.52 253.45 245.06 250.87 245.60 246.94 C 246.20 242.67 249.66 240.09 253.11 238.05 C 280.37 222.38 307.59 206.63 334.83 190.94 C 340.72 187.58 346.20 183.75 353.07 182.66 Z" fill="#1d6f16" />
<path d="M 236.05 261.67 C 241.16 262.33 245.84 265.21 250.24 267.73 C 247.71 266.68 244.72 265.53 241.96 265.73 C 238.17 266.41 235.19 269.65 234.73 273.46 C 234.19 278.25 234.58 283.18 234.50 288.00 C 234.39 316.33 234.49 344.67 234.42 373.00 C 233.67 385.40 241.23 398.09 252.04 404.00 C 280.17 420.22 308.30 436.46 336.38 452.75 C 340.27 455.07 344.40 456.43 348.88 454.96 C 351.85 453.44 353.10 450.26 354.36 447.38 C 354.33 450.46 354.45 453.65 354.04 456.70 C 352.91 464.52 349.08 471.93 343.53 477.53 C 339.89 481.23 335.37 483.34 330.92 485.96 C 302.61 502.33 274.28 518.60 245.99 534.98 C 235.63 540.92 222.27 540.94 211.89 535.03 C 181.48 517.45 151.08 499.87 120.66 482.31 C 112.60 477.68 106.97 469.31 104.50 460.47 C 103.23 455.96 103.48 451.62 103.48 447.00 C 103.60 414.00 103.56 381.00 103.53 348.00 C 103.33 339.51 107.26 331.03 112.59 324.60 C 116.30 320.11 120.99 317.79 125.92 314.94 C 154.68 298.38 183.41 281.79 212.16 265.21 C 219.63 260.72 227.64 260.85 236.05 261.67 Z" fill="#c6d216" />
<path d="M 497.01 260.82 C 504.03 261.89 509.03 265.57 515.02 268.97 C 542.91 285.04 570.73 301.18 598.62 317.25 C 606.25 321.54 611.27 328.83 614.20 336.92 C 616.02 341.87 615.61 346.82 615.65 352.00 C 615.54 385.66 615.60 419.34 615.61 453.00 C 615.78 460.90 611.80 468.90 606.89 474.90 C 602.88 479.80 597.73 482.15 592.40 485.28 C 564.06 501.63 535.74 517.95 507.42 534.31 C 499.97 538.66 491.12 539.47 482.75 537.88 C 476.32 536.59 471.57 533.18 465.99 530.02 C 437.86 513.75 409.72 497.50 381.59 481.23 C 374.27 476.96 369.41 469.60 366.63 461.75 C 364.98 457.07 365.27 452.60 365.26 447.73 C 366.49 450.81 367.79 453.69 371.09 454.99 C 375.05 456.24 378.56 454.93 382.00 453.02 C 408.38 437.76 434.79 422.54 461.20 407.33 C 466.59 404.18 471.76 401.77 475.85 396.85 C 480.61 391.07 484.52 383.67 484.41 376.00 C 484.39 345.00 484.39 314.00 484.43 283.00 C 484.43 279.67 484.60 276.26 484.23 272.94 C 483.92 269.88 481.83 267.03 478.98 265.85 C 476.20 264.89 472.91 265.76 470.16 266.49 C 472.99 264.90 475.96 263.08 479.05 262.06 C 484.70 260.08 491.13 260.10 497.01 260.82 Z" fill="#c6d216" />
<path d="M 241.96 265.73 C 244.72 265.53 247.71 266.68 250.24 267.73 C 279.37 284.65 308.62 301.46 337.78 318.35 C 346.99 323.83 351.56 332.92 354.30 342.95 C 354.51 377.76 354.35 412.57 354.36 447.38 C 353.10 450.26 351.85 453.44 348.88 454.96 C 344.40 456.43 340.27 455.07 336.38 452.75 C 308.30 436.46 280.17 420.22 252.04 404.00 C 241.23 398.09 233.67 385.40 234.42 373.00 C 234.49 344.67 234.39 316.33 234.50 288.00 C 234.58 283.18 234.19 278.25 234.73 273.46 C 235.19 269.65 238.17 266.41 241.96 265.73 Z" fill="#1d6f16" />
<path d="M 470.16 266.49 C 472.91 265.76 476.20 264.89 478.98 265.85 C 481.83 267.03 483.92 269.88 484.23 272.94 C 484.60 276.26 484.43 279.67 484.43 283.00 C 484.39 314.00 484.39 345.00 484.41 376.00 C 484.52 383.67 480.61 391.07 475.85 396.85 C 471.76 401.77 466.59 404.18 461.20 407.33 C 434.79 422.54 408.38 437.76 382.00 453.02 C 378.56 454.93 375.05 456.24 371.09 454.99 C 367.79 453.69 366.49 450.81 365.26 447.73 C 365.23 413.51 365.23 379.22 365.28 345.00 C 365.24 340.31 366.84 336.03 368.85 331.87 C 371.85 325.82 376.26 320.58 382.19 317.23 C 411.51 300.31 440.85 283.42 470.16 266.49 Z" fill="#1d6f16" />
</svg>